<?xml version="1.0" standalone="no"?>
<!DOCTYPE svg PUBLIC "-//W3C//DTD SVG 20010904//EN"
 "http://www.w3.org/TR/2001/REC-SVG-20010904/DTD/svg10.dtd">
<svg version="1.0" xmlns="http://www.w3.org/2000/svg"
 width="507.000000pt" height="507.000000pt" viewBox="0 0 507.000000 507.000000"
 preserveAspectRatio="xMidYMid meet">
<metadata>
Created by potrace 1.14, written by Peter Selinger 2001-2017
</metadata>
<g transform="translate(0.000000,507.000000) scale(0.100000,-0.100000)"
fill="#000000" stroke="none">
<path d="M2476 4623 c-27 -76 -61 -174 -76 -218 -16 -44 -49 -138 -75 -210
-26 -71 -59 -166 -75 -210 -15 -44 -31 -87 -35 -96 -6 -16 20 -17 312 -17
l319 0 -22 61 c-11 34 -24 69 -27 77 -5 14 -16 46 -98 278 -17 48 -39 110 -49
137 -10 28 -40 111 -66 185 -26 74 -50 138 -54 143 -3 4 -28 -55 -54 -130z"/>
<path d="M988 4053 c16 -32 48 -98 71 -148 24 -49 58 -121 77 -159 19 -38 34
-75 34 -83 0 -7 3 -13 8 -13 4 0 16 -21 26 -48 11 -26 52 -114 92 -196 l71
-148 223 222 223 223 -24 18 c-13 10 -28 19 -32 19 -5 0 -57 23 -115 51 -387
186 -669 319 -678 319 -2 0 9 -26 24 -57z"/>
<path d="M4010 4073 c-41 -19 -102 -48 -135 -63 -33 -15 -123 -58 -200 -95
-77 -37 -169 -80 -205 -96 -36 -16 -72 -34 -80 -39 -17 -11 -56 -30 -113 -54
l-39 -17 224 -224 c122 -124 224 -225 226 -225 2 0 37 71 157 325 41 87 101
214 199 418 26 55 46 100 44 102 -2 2 -37 -12 -78 -32z"/>
<path d="M2468 3655 c-2 -1 -32 -5 -68 -9 -90 -8 -151 -22 -240 -53 -50 -17
-192 -84 -200 -94 -3 -3 -16 -12 -29 -19 -14 -7 -30 -17 -35 -21 -6 -5 -36
-29 -66 -53 -146 -116 -251 -262 -340 -471 -46 -107 -68 -251 -65 -410 3 -154
6 -171 41 -291 99 -344 368 -625 709 -739 154 -52 341 -71 495 -51 77 11 212
45 229 59 8 7 15 11 15 9 1 -5 35 7 95 34 130 60 320 212 391 314 14 19 32 43
41 53 30 33 117 212 143 294 58 185 68 405 27 586 -31 135 -105 295 -193 416
-39 54 -204 221 -218 221 -4 0 -20 11 -36 25 -16 14 -35 25 -41 25 -7 0 -13 4
-13 8 0 15 -192 100 -282 126 -48 14 -116 28 -150 31 -83 8 -206 14 -210 10z"/>
<path d="M1135 2840 c-27 -10 -129 -46 -225 -80 -96 -34 -220 -78 -275 -98
-55 -20 -102 -37 -105 -38 -3 0 -12 -4 -20 -7 -12 -5 -122 -44 -180 -63 -13
-5 -13 -6 0 -14 8 -4 125 -47 260 -95 379 -134 522 -185 563 -201 21 -8 41
-12 45 -10 11 7 8 619 -3 622 -6 2 -32 -6 -60 -16z"/>
<path d="M3851 2545 c-1 -173 2 -315 7 -315 4 0 57 19 117 41 61 22 115 41
120 43 6 2 17 6 25 9 8 3 94 33 190 67 96 34 204 72 240 85 36 13 93 33 128
46 34 12 62 23 62 24 0 3 -44 19 -230 85 -80 28 -167 60 -195 70 -73 27 -416
147 -442 154 l-21 7 -1 -316z"/>
<path d="M1331 1757 c-19 -40 -56 -119 -83 -177 -27 -58 -53 -112 -58 -120 -6
-8 -14 -25 -20 -38 -20 -46 -51 -111 -128 -272 -44 -91 -79 -166 -77 -168 1
-2 52 20 111 49 60 28 145 69 189 89 44 21 132 62 195 93 63 30 168 80 233
110 64 31 117 59 117 63 0 6 -402 409 -430 431 -13 10 -21 0 -49 -60z"/>
<path d="M3460 1605 c-189 -189 -221 -225 -204 -231 10 -4 78 -35 149 -69 122
-59 186 -89 460 -220 61 -29 134 -64 164 -79 30 -14 56 -24 58 -22 2 2 -17 48
-43 102 -25 55 -66 140 -89 190 -161 340 -264 554 -267 554 -2 0 -104 -101
-228 -225z"/>
<path d="M2215 1203 c4 -10 31 -88 62 -173 30 -85 63 -180 74 -210 11 -30 38
-104 59 -165 115 -325 118 -332 128 -305 5 14 71 201 146 415 76 215 144 405
152 423 l14 32 -321 0 c-302 0 -321 -1 -314 -17z"/>
</g>
</svg>
